<mxfile host="app.diagrams.net" agent="Mozilla/5.0 (Windows NT 10.0; Win64; x64) AppleWebKit/537.36 (KHTML, like Gecko) Chrome/138.0.0.0 Safari/537.36" version="28.1.1">
  <diagram name="Page-1" id="mq7CGdhU6JjjslZybcMK">
    <mxGraphModel dx="1024" dy="544" grid="1" gridSize="10" guides="1" tooltips="1" connect="1" arrows="1" fold="1" page="1" pageScale="1" pageWidth="827" pageHeight="1169" math="0" shadow="0">
      <root>
        <mxCell id="0" />
        <mxCell id="1" parent="0" />
        <mxCell id="WcwEVV2AFtDFnxEPL3za-3" value="" style="edgeStyle=orthogonalEdgeStyle;rounded=0;orthogonalLoop=1;jettySize=auto;html=1;" edge="1" parent="1">
          <mxGeometry relative="1" as="geometry">
            <mxPoint x="415" y="110" as="sourcePoint" />
            <mxPoint x="415" y="190" as="targetPoint" />
          </mxGeometry>
        </mxCell>
        <mxCell id="WcwEVV2AFtDFnxEPL3za-6" value="" style="edgeStyle=orthogonalEdgeStyle;rounded=0;orthogonalLoop=1;jettySize=auto;html=1;" edge="1" parent="1" source="WcwEVV2AFtDFnxEPL3za-4">
          <mxGeometry relative="1" as="geometry">
            <mxPoint x="415" y="350" as="targetPoint" />
          </mxGeometry>
        </mxCell>
        <mxCell id="WcwEVV2AFtDFnxEPL3za-4" value="New user?" style="rhombus;whiteSpace=wrap;html=1;fillColor=#f8cecc;strokeColor=#b85450;" vertex="1" parent="1">
          <mxGeometry x="340" y="190" width="150" height="80" as="geometry" />
        </mxCell>
        <mxCell id="WcwEVV2AFtDFnxEPL3za-9" value="" style="edgeStyle=orthogonalEdgeStyle;rounded=0;orthogonalLoop=1;jettySize=auto;html=1;" edge="1" parent="1" source="WcwEVV2AFtDFnxEPL3za-7" target="WcwEVV2AFtDFnxEPL3za-8">
          <mxGeometry relative="1" as="geometry" />
        </mxCell>
        <mxCell id="WcwEVV2AFtDFnxEPL3za-7" value="Recognize the face" style="shape=parallelogram;perimeter=parallelogramPerimeter;whiteSpace=wrap;html=1;fixedSize=1;fillColor=#fff2cc;strokeColor=#d6b656;" vertex="1" parent="1">
          <mxGeometry x="310" y="350" width="220" height="60" as="geometry" />
        </mxCell>
        <mxCell id="WcwEVV2AFtDFnxEPL3za-11" value="" style="edgeStyle=orthogonalEdgeStyle;rounded=0;orthogonalLoop=1;jettySize=auto;html=1;" edge="1" parent="1" source="WcwEVV2AFtDFnxEPL3za-8" target="WcwEVV2AFtDFnxEPL3za-10">
          <mxGeometry relative="1" as="geometry" />
        </mxCell>
        <mxCell id="WcwEVV2AFtDFnxEPL3za-8" value="Face recogniged" style="rhombus;whiteSpace=wrap;html=1;fillColor=#e1d5e7;strokeColor=#9673a6;" vertex="1" parent="1">
          <mxGeometry x="330" y="480" width="180" height="80" as="geometry" />
        </mxCell>
        <mxCell id="WcwEVV2AFtDFnxEPL3za-14" value="" style="edgeStyle=orthogonalEdgeStyle;rounded=0;orthogonalLoop=1;jettySize=auto;html=1;" edge="1" parent="1" source="WcwEVV2AFtDFnxEPL3za-10">
          <mxGeometry relative="1" as="geometry">
            <mxPoint x="420" y="790" as="targetPoint" />
          </mxGeometry>
        </mxCell>
        <mxCell id="WcwEVV2AFtDFnxEPL3za-10" value="store in csv file with&lt;div&gt;registration numbers &amp;amp; date&lt;/div&gt;&lt;div&gt;time of entry&amp;nbsp;&lt;/div&gt;" style="shape=parallelogram;perimeter=parallelogramPerimeter;whiteSpace=wrap;html=1;fixedSize=1;fillColor=#b1ddf0;strokeColor=#10739e;" vertex="1" parent="1">
          <mxGeometry x="310" y="650" width="220" height="60" as="geometry" />
        </mxCell>
        <mxCell id="WcwEVV2AFtDFnxEPL3za-15" value="" style="ellipse;whiteSpace=wrap;html=1;fillColor=#fad7ac;strokeColor=#b46504;" vertex="1" parent="1">
          <mxGeometry x="330" y="790" width="190" height="80" as="geometry" />
        </mxCell>
        <mxCell id="WcwEVV2AFtDFnxEPL3za-17" value="" style="edgeStyle=orthogonalEdgeStyle;rounded=0;orthogonalLoop=1;jettySize=auto;html=1;" edge="1" parent="1" source="WcwEVV2AFtDFnxEPL3za-16" target="WcwEVV2AFtDFnxEPL3za-7">
          <mxGeometry relative="1" as="geometry" />
        </mxCell>
        <mxCell id="WcwEVV2AFtDFnxEPL3za-19" value="" style="edgeStyle=orthogonalEdgeStyle;rounded=0;orthogonalLoop=1;jettySize=auto;html=1;" edge="1" parent="1" source="WcwEVV2AFtDFnxEPL3za-16" target="WcwEVV2AFtDFnxEPL3za-18">
          <mxGeometry relative="1" as="geometry" />
        </mxCell>
        <mxCell id="WcwEVV2AFtDFnxEPL3za-16" value="store the face data in folder on your name" style="rounded=0;whiteSpace=wrap;html=1;fillColor=#d0cee2;strokeColor=#56517e;" vertex="1" parent="1">
          <mxGeometry x="630" y="350" width="140" height="60" as="geometry" />
        </mxCell>
        <mxCell id="WcwEVV2AFtDFnxEPL3za-18" value="Give your photograph" style="rounded=0;whiteSpace=wrap;html=1;fillColor=#f8cecc;gradientColor=#ea6b66;strokeColor=#b85450;" vertex="1" parent="1">
          <mxGeometry x="630" y="210" width="140" height="60" as="geometry" />
        </mxCell>
        <mxCell id="WcwEVV2AFtDFnxEPL3za-23" value="" style="endArrow=classic;html=1;rounded=0;entryX=0.429;entryY=0;entryDx=0;entryDy=0;entryPerimeter=0;" edge="1" parent="1" source="WcwEVV2AFtDFnxEPL3za-8" target="WcwEVV2AFtDFnxEPL3za-18">
          <mxGeometry width="50" height="50" relative="1" as="geometry">
            <mxPoint x="510" y="570" as="sourcePoint" />
            <mxPoint x="800" y="140" as="targetPoint" />
            <Array as="points">
              <mxPoint x="800" y="520" />
              <mxPoint x="800" y="430" />
              <mxPoint x="800" y="390" />
              <mxPoint x="800" y="460" />
              <mxPoint x="800" y="470" />
              <mxPoint x="800" y="150" />
              <mxPoint x="690" y="150" />
            </Array>
          </mxGeometry>
        </mxCell>
        <mxCell id="WcwEVV2AFtDFnxEPL3za-25" value="" style="endArrow=none;html=1;rounded=0;exitX=1;exitY=0.5;exitDx=0;exitDy=0;entryX=0;entryY=0.5;entryDx=0;entryDy=0;" edge="1" parent="1" source="WcwEVV2AFtDFnxEPL3za-4" target="WcwEVV2AFtDFnxEPL3za-18">
          <mxGeometry width="50" height="50" relative="1" as="geometry">
            <mxPoint x="590" y="440" as="sourcePoint" />
            <mxPoint x="610" y="270" as="targetPoint" />
            <Array as="points">
              <mxPoint x="550" y="240" />
            </Array>
          </mxGeometry>
        </mxCell>
        <mxCell id="WcwEVV2AFtDFnxEPL3za-26" value="start" style="ellipse;whiteSpace=wrap;html=1;fillColor=#d5e8d4;strokeColor=#82b366;" vertex="1" parent="1">
          <mxGeometry x="360" y="30" width="120" height="80" as="geometry" />
        </mxCell>
      </root>
    </mxGraphModel>
  </diagram>
</mxfile>
